<svg width="35" height="37" viewBox="0 0 35 37" fill="none" xmlns="http://www.w3.org/2000/svg">
<path d="M3.37851 24.5V3.92857H0V0.5H5.06776C6.00072 0.5 6.75701 1.26752 6.75701 2.21429V22.7857H27.7686L31.1472 9.07143H10.1355V5.64286H33.3107C34.2437 5.64286 35 6.41038 35 7.35714C35 7.4973 34.9831 7.63695 34.9495 7.77293L30.7264 24.9157C30.5385 25.6789 29.8628 26.2143 29.0876 26.2143H5.06776C4.13482 26.2143 3.37851 25.4468 3.37851 24.5ZM6.75701 36.5C4.89111 36.5 3.37851 34.965 3.37851 33.0714C3.37851 31.1778 4.89111 29.6429 6.75701 29.6429C8.62291 29.6429 10.1355 31.1778 10.1355 33.0714C10.1355 34.965 8.62291 36.5 6.75701 36.5ZM27.0281 36.5C25.1621 36.5 23.6496 34.965 23.6496 33.0714C23.6496 31.1778 25.1621 29.6429 27.0281 29.6429C28.894 29.6429 30.4066 31.1778 30.4066 33.0714C30.4066 34.965 28.894 36.5 27.0281 36.5Z" fill="#10D118"/>
</svg>
