<svg width="36" height="33" viewBox="0 0 36 33" fill="none" xmlns="http://www.w3.org/2000/svg">
<path d="M26.1 0C31.5677 0 36 4.45946 36 10.7027C36 23.1892 22.5 30.3243 18 33C13.5 30.3243 0 23.1892 0 10.7027C0 4.45946 4.5 0 9.9 0C13.2479 0 16.2 1.78378 18 3.56757C19.8 1.78378 22.752 0 26.1 0ZM19.681 27.8338C21.2679 26.8433 22.698 25.8568 24.0388 24.7998C29.4007 20.5724 32.4 15.9533 32.4 10.7027C32.4 6.49433 29.6334 3.56757 26.1 3.56757C24.1634 3.56757 22.0667 4.58274 20.5456 6.09021L18 8.61288L15.4544 6.09021C13.9332 4.58274 11.8366 3.56757 9.9 3.56757C6.40631 3.56757 3.6 6.52241 3.6 10.7027C3.6 15.9533 6.59929 20.5724 11.9613 24.7998C13.302 25.8568 14.7321 26.8433 16.319 27.8338C16.8563 28.1693 17.39 28.4922 18 28.8531C18.61 28.4922 19.1437 28.1693 19.681 27.8338Z" fill="#10D118"/>
</svg>
