<svg width="28" height="26" viewBox="0 0 28 26" fill="none" xmlns="http://www.w3.org/2000/svg">
<path d="M20.3 0C24.5526 0 28 3.51351 28 8.43243C28 18.2703 17.5 23.8919 14 26C10.5 23.8919 0 18.2703 0 8.43243C0 3.51351 3.5 0 7.7 0C10.304 0 12.6 1.40541 14 2.81081C15.4 1.40541 17.696 0 20.3 0ZM15.3075 21.9297C16.5417 21.1492 17.654 20.3721 18.6969 19.5392C22.8672 16.2085 25.2 12.5692 25.2 8.43243C25.2 5.11674 23.0482 2.81081 20.3 2.81081C18.7937 2.81081 17.163 3.61064 15.9799 4.79835L14 6.7859L12.0201 4.79835C10.837 3.61064 9.20626 2.81081 7.7 2.81081C4.98268 2.81081 2.8 5.13886 2.8 8.43243C2.8 12.5692 5.13278 16.2085 9.30319 19.5392C10.346 20.3721 11.4583 21.1492 12.6925 21.9297C13.1104 22.194 13.5255 22.4484 14 22.7327C14.4745 22.4484 14.8896 22.194 15.3075 21.9297Z" fill="#10D118"/>
</svg>
