<svg width="29" height="28" viewBox="0 0 29 28" fill="none" xmlns="http://www.w3.org/2000/svg">
<path d="M22.3898 20.1475L28.2889 26.0507L26.341 28L20.4419 22.0968C18.3208 23.795 15.6308 24.8108 12.7052 24.8108C5.86212 24.8108 0.30835 19.2532 0.30835 12.4054C0.30835 5.55763 5.86212 0 12.7052 0C19.5482 0 25.102 5.55763 25.102 12.4054C25.102 15.3331 24.0868 18.0249 22.3898 20.1475ZM19.6263 19.1247C21.3106 17.3877 22.3471 15.0183 22.3471 12.4054C22.3471 7.07454 18.0323 2.75676 12.7052 2.75676C7.37797 2.75676 3.0632 7.07454 3.0632 12.4054C3.0632 17.7363 7.37797 22.0541 12.7052 22.0541C15.3162 22.0541 17.684 21.0169 19.4198 19.3314L19.6263 19.1247Z" fill="#10D118"/>
</svg>
