<svg width="43" height="43" viewBox="0 0 43 43" fill="none" xmlns="http://www.w3.org/2000/svg">
<path d="M21.5 0C33.374 0 43 9.62587 43 21.5C43 33.374 33.374 43 21.5 43C9.62587 43 0 33.374 0 21.5C0 9.62587 9.62587 0 21.5 0ZM21.8434 30.1C17.4672 30.1 13.5274 31.9677 10.7774 34.9495C13.7178 37.2969 17.4451 38.7 21.5 38.7C25.7344 38.7 29.6113 37.1698 32.6082 34.6324C29.8755 31.8359 26.0621 30.1 21.8434 30.1ZM21.5 4.3C12.0007 4.3 4.3 12.0007 4.3 21.5C4.3 25.3928 5.59323 28.9835 7.77348 31.866C11.3012 28.1308 16.3001 25.8 21.8434 25.8C27.1848 25.8 32.0206 27.9642 35.5219 31.4635C37.5231 28.6524 38.7 25.2137 38.7 21.5C38.7 12.0007 30.9993 4.3 21.5 4.3ZM21.5 6.45C26.2496 6.45 30.1 10.3003 30.1 15.05C30.1 19.7996 26.2496 23.65 21.5 23.65C16.7503 23.65 12.9 19.7996 12.9 15.05C12.9 10.3003 16.7503 6.45 21.5 6.45ZM21.5 10.75C19.1251 10.75 17.2 12.6752 17.2 15.05C17.2 17.4249 19.1251 19.35 21.5 19.35C23.8749 19.35 25.8 17.4249 25.8 15.05C25.8 12.6752 23.8749 10.75 21.5 10.75Z" fill="#10D118"/>
</svg>
